<svg viewBox="0 0 64 64" fill="none" xmlns="http://www.w3.org/2000/svg">
  <defs>
    <linearGradient id="bg" x1="8" y1="6" x2="56" y2="58" gradientUnits="userSpaceOnUse">
      <stop offset="0" stop-color="#111315"/>
      <stop offset="0.58" stop-color="#16201F"/>
      <stop offset="1" stop-color="#0F766E"/>
    </linearGradient>
    <linearGradient id="drop" x1="22" y1="16" x2="48" y2="48" gradientUnits="userSpaceOnUse">
      <stop offset="0" stop-color="#FFFFFF"/>
      <stop offset="1" stop-color="#DFFAF6"/>
    </linearGradient>
  </defs>
  <rect x="3" y="3" width="58" height="58" rx="14" fill="url(#bg)"/>
  <rect x="3" y="3" width="58" height="58" rx="14" stroke="#FFFFFF" stroke-opacity="0.2"/>
  <g transform="translate(41 39) rotate(45)">
    <rect x="-5" y="-21" width="10" height="39" rx="5" fill="url(#drop)"/>
    <circle cx="0" cy="-24" r="6" fill="#F7FBF8"/>
    <rect x="-2.5" y="-3" width="5" height="8" rx="2.2" fill="#0F766E" fill-opacity="0.22"/>
    <path d="M0 18C2.7 18 4.8 20.1 4.8 22.8C4.8 26.4 0 30.6 0 30.6C0 30.6 -4.8 26.4 -4.8 22.8C-4.8 20.1 -2.7 18 0 18Z" fill="#14B8A6"/>
  </g>
  <circle cx="25" cy="25" r="10.5" stroke="#F7FBF8" stroke-width="3.2" stroke-linecap="round" opacity="0.92"/>
  <path d="M25 18V32M18 25H32" stroke="#14B8A6" stroke-width="2.4" stroke-linecap="round"/>
</svg>
